<?xml version="1.0" encoding="utf-8"?>
<!-- Generator: Adobe Illustrator 22.1.0, SVG Export Plug-In . SVG Version: 6.00 Build 0)  -->
<svg version="1.1" id="Livello_1" xmlns="http://www.w3.org/2000/svg" xmlns:xlink="http://www.w3.org/1999/xlink" x="0px" y="0px"
	 viewBox="0 0 512 512" style="enable-background:new 0 0 512 512;" xml:space="preserve">
<style type="text/css">
	.st0{fill:#FF0000;}
	.st1{fill:#FFFFFF;}
</style>
<g>
	<path class="st0" d="M256,0C114.6,0,0,114.6,0,256c0,44.2,11.2,85.8,30.9,122L0,512l134-30.9c36.3,19.7,77.9,30.9,122,30.9
		c141.4,0,256-114.6,256-256S397.4,0,256,0z"/>
	<g>
		<path class="st1" d="M278,372V218v-21.9c0-12.2-9.9-22.1-22.1-22.1H212c-12.2,0-22,9.8-22,22c0,12.2,9.8,22,22,22h22v154h-22
			c-12.2,0-22,9.8-22,22c0,12.2,9.8,22,22,22h88c12.2,0,22-9.8,22-22c0-12.2-9.8-22-22-22H278z"/>
		<path class="st1" d="M278,105c0-18.2-14.8-33-33-33s-33,14.8-33,33s14.8,33,33,33S278,123.2,278,105"/>
	</g>
</g>
</svg>
