<?xml version="1.0" encoding="utf-8"?>
<!-- Generator: Adobe Illustrator 22.1.0, SVG Export Plug-In . SVG Version: 6.00 Build 0)  -->
<svg version="1.1" id="Livello_1" xmlns="http://www.w3.org/2000/svg" xmlns:xlink="http://www.w3.org/1999/xlink" x="0px" y="0px"
	 viewBox="0 0 64 64" style="enable-background:new 0 0 64 64;" xml:space="preserve">
<style type="text/css">
	.st0{fill:#EFEFEF;}
</style>
<path class="st0" d="M28,28h4v4h-4V28z"/>
<path class="st0" d="M20,28h4v4h-4V28z"/>
<path class="st0" d="M12,28h4v4h-4V28z"/>
<path class="st0" d="M4,28h4v4H4V28z"/>
<path class="st0" d="M24,24h4v4h-4V24z"/>
<path class="st0" d="M16,24h4v4h-4V24z"/>
<path class="st0" d="M8,24h4v4H8V24z"/>
<path class="st0" d="M0,24h4v4H0V24z"/>
<path class="st0" d="M28,20h4v4h-4V20z"/>
<path class="st0" d="M20,20h4v4h-4V20z"/>
<path class="st0" d="M12,20h4v4h-4V20z"/>
<path class="st0" d="M4,20h4v4H4V20z"/>
<path class="st0" d="M24,16h4v4h-4V16z"/>
<path class="st0" d="M16,16h4v4h-4V16z"/>
<path class="st0" d="M8,16h4v4H8V16z"/>
<path class="st0" d="M0,16h4v4H0V16z"/>
<path class="st0" d="M28,12h4v4h-4V12z"/>
<path class="st0" d="M20,12h4v4h-4V12z"/>
<path class="st0" d="M12,12h4v4h-4V12z"/>
<path class="st0" d="M4,12h4v4H4V12z"/>
<path class="st0" d="M24,8h4v4h-4V8z"/>
<path class="st0" d="M16,8h4v4h-4V8z"/>
<path class="st0" d="M8,8h4v4H8V8z"/>
<path class="st0" d="M0,8h4v4H0V8z"/>
<path class="st0" d="M28,4h4v4h-4V4z"/>
<path class="st0" d="M20,4h4v4h-4V4z"/>
<path class="st0" d="M12,4h4v4h-4V4z"/>
<path class="st0" d="M4,4h4v4H4V4z"/>
<path class="st0" d="M24,0h4v4h-4V0z"/>
<path class="st0" d="M16,0h4v4h-4V0z"/>
<path class="st0" d="M8,0h4v4H8V0z"/>
<path class="st0" d="M0,0h4v4H0V0z"/>
<path class="st0" d="M60,28h4v4h-4V28z"/>
<path class="st0" d="M52,28h4v4h-4V28z"/>
<path class="st0" d="M44,28h4v4h-4V28z"/>
<path class="st0" d="M36,28h4v4h-4V28z"/>
<path class="st0" d="M56,24h4v4h-4V24z"/>
<path class="st0" d="M48,24h4v4h-4V24z"/>
<path class="st0" d="M40,24h4v4h-4V24z"/>
<path class="st0" d="M32,24h4v4h-4V24z"/>
<path class="st0" d="M60,20h4v4h-4V20z"/>
<path class="st0" d="M52,20h4v4h-4V20z"/>
<path class="st0" d="M44,20h4v4h-4V20z"/>
<path class="st0" d="M36,20h4v4h-4V20z"/>
<path class="st0" d="M56,16h4v4h-4V16z"/>
<path class="st0" d="M48,16h4v4h-4V16z"/>
<path class="st0" d="M40,16h4v4h-4V16z"/>
<path class="st0" d="M32,16h4v4h-4V16z"/>
<path class="st0" d="M60,12h4v4h-4V12z"/>
<path class="st0" d="M52,12h4v4h-4V12z"/>
<path class="st0" d="M44,12h4v4h-4V12z"/>
<path class="st0" d="M36,12h4v4h-4V12z"/>
<path class="st0" d="M56,8h4v4h-4V8z"/>
<path class="st0" d="M48,8h4v4h-4V8z"/>
<path class="st0" d="M40,8h4v4h-4V8z"/>
<path class="st0" d="M32,8h4v4h-4V8z"/>
<path class="st0" d="M60,4h4v4h-4V4z"/>
<path class="st0" d="M52,4h4v4h-4V4z"/>
<path class="st0" d="M44,4h4v4h-4V4z"/>
<path class="st0" d="M36,4h4v4h-4V4z"/>
<path class="st0" d="M56,0h4v4h-4V0z"/>
<path class="st0" d="M48,0h4v4h-4V0z"/>
<path class="st0" d="M40,0h4v4h-4V0z"/>
<path class="st0" d="M32,0h4v4h-4V0z"/>
<path class="st0" d="M28,60h4v4h-4V60z"/>
<path class="st0" d="M20,60h4v4h-4V60z"/>
<path class="st0" d="M12,60h4v4h-4V60z"/>
<path class="st0" d="M4,60h4v4H4V60z"/>
<path class="st0" d="M24,56h4v4h-4V56z"/>
<path class="st0" d="M16,56h4v4h-4V56z"/>
<path class="st0" d="M8,56h4v4H8V56z"/>
<path class="st0" d="M0,56h4v4H0V56z"/>
<path class="st0" d="M28,52h4v4h-4V52z"/>
<path class="st0" d="M20,52h4v4h-4V52z"/>
<path class="st0" d="M12,52h4v4h-4V52z"/>
<path class="st0" d="M4,52h4v4H4V52z"/>
<path class="st0" d="M24,48h4v4h-4V48z"/>
<path class="st0" d="M16,48h4v4h-4V48z"/>
<path class="st0" d="M8,48h4v4H8V48z"/>
<path class="st0" d="M0,48h4v4H0V48z"/>
<path class="st0" d="M28,44h4v4h-4V44z"/>
<path class="st0" d="M20,44h4v4h-4V44z"/>
<path class="st0" d="M12,44h4v4h-4V44z"/>
<path class="st0" d="M4,44h4v4H4V44z"/>
<path class="st0" d="M24,40h4v4h-4V40z"/>
<path class="st0" d="M16,40h4v4h-4V40z"/>
<path class="st0" d="M8,40h4v4H8V40z"/>
<path class="st0" d="M0,40h4v4H0V40z"/>
<path class="st0" d="M28,36h4v4h-4V36z"/>
<path class="st0" d="M20,36h4v4h-4V36z"/>
<path class="st0" d="M12,36h4v4h-4V36z"/>
<path class="st0" d="M4,36h4v4H4V36z"/>
<path class="st0" d="M24,32h4v4h-4V32z"/>
<path class="st0" d="M16,32h4v4h-4V32z"/>
<path class="st0" d="M8,32h4v4H8V32z"/>
<path class="st0" d="M0,32h4v4H0V32z"/>
<path class="st0" d="M60,60h4v4h-4V60z"/>
<path class="st0" d="M52,60h4v4h-4V60z"/>
<path class="st0" d="M44,60h4v4h-4V60z"/>
<path class="st0" d="M36,60h4v4h-4V60z"/>
<path class="st0" d="M56,56h4v4h-4V56z"/>
<path class="st0" d="M48,56h4v4h-4V56z"/>
<path class="st0" d="M40,56h4v4h-4V56z"/>
<path class="st0" d="M32,56h4v4h-4V56z"/>
<path class="st0" d="M60,52h4v4h-4V52z"/>
<path class="st0" d="M52,52h4v4h-4V52z"/>
<path class="st0" d="M44,52h4v4h-4V52z"/>
<path class="st0" d="M36,52h4v4h-4V52z"/>
<path class="st0" d="M56,48h4v4h-4V48z"/>
<path class="st0" d="M48,48h4v4h-4V48z"/>
<path class="st0" d="M40,48h4v4h-4V48z"/>
<path class="st0" d="M32,48h4v4h-4V48z"/>
<path class="st0" d="M60,44h4v4h-4V44z"/>
<path class="st0" d="M52,44h4v4h-4V44z"/>
<path class="st0" d="M44,44h4v4h-4V44z"/>
<path class="st0" d="M36,44h4v4h-4V44z"/>
<path class="st0" d="M56,40h4v4h-4V40z"/>
<path class="st0" d="M48,40h4v4h-4V40z"/>
<path class="st0" d="M40,40h4v4h-4V40z"/>
<path class="st0" d="M32,40h4v4h-4V40z"/>
<path class="st0" d="M60,36h4v4h-4V36z"/>
<path class="st0" d="M52,36h4v4h-4V36z"/>
<path class="st0" d="M44,36h4v4h-4V36z"/>
<path class="st0" d="M36,36h4v4h-4V36z"/>
<path class="st0" d="M56,32h4v4h-4V32z"/>
<path class="st0" d="M48,32h4v4h-4V32z"/>
<path class="st0" d="M40,32h4v4h-4V32z"/>
<path class="st0" d="M32,32h4v4h-4V32z"/>
</svg>
