<?xml version="1.0" encoding="utf-8"?>
<!-- Generator: Adobe Illustrator 22.1.0, SVG Export Plug-In . SVG Version: 6.00 Build 0)  -->
<svg version="1.1" id="Livello_1" xmlns="http://www.w3.org/2000/svg" xmlns:xlink="http://www.w3.org/1999/xlink" x="0px" y="0px"
	 viewBox="0 0 400 80" style="enable-background:new 0 0 400 80;" xml:space="preserve">
<style type="text/css">
	.st0{fill:none;}
	.st1{fill:#232323;}
</style>
<rect class="st0" width="400" height="80"/>
<g>
	<g>
		<path class="st1" d="M121.8,71.4h-16.2c-0.9,0-1.5,1-1.5,2.2v4.3c0,1.2,0.7,2.2,1.5,2.2h0.8c0-0.1,0-0.2,0-0.3
			c0-1.6,1.2-2.8,2.8-2.8c1.5,0,2.8,1.2,2.8,2.8c0,0.1,0,0.2,0,0.3h2.8c0-0.1-0.1-0.2-0.1-0.3c0-1.6,1.2-2.8,2.8-2.8
			c1.5,0,2.8,1.2,2.8,2.8c0,0.1,0,0.2-0.1,0.3h1.7c0.8,0,1.5-1,1.5-2.2v-4.3C123.3,72.3,122.6,71.4,121.8,71.4z"/>
	</g>
	<g>
		<path class="st1" d="M113.9,0v60c0,0.2-0.7,0.2-0.7,0V0H113.9z"/>
		<g>
			<path class="st1" d="M110,74V63.9c0-2,1.6-3.5,3.6-3.5c2,0,3.6,1.6,3.6,3.5V74h0.6V63.9c0-2.3-1.9-4.2-4.1-4.2
				c-2.3,0-4.2,1.9-4.2,4.2V74H110z"/>
		</g>
	</g>
</g>
<g>
	<g>
		<path class="st1" d="M295.3,71.4h-16.2c-0.9,0-1.5,1-1.5,2.2v4.3c0,1.2,0.7,2.2,1.5,2.2h0.8c0-0.1-0.1-0.2-0.1-0.3
			c0-1.6,1.2-2.8,2.8-2.8s2.8,1.2,2.8,2.8c0,0.1-0.1,0.2-0.1,0.3h2.8c0-0.1,0-0.2,0-0.3c0-1.6,1.3-2.8,2.8-2.8s2.8,1.2,2.8,2.8
			c0,0.1,0,0.2-0.1,0.3h1.7c0.8,0,1.5-1,1.5-2.2v-4.3C296.9,72.3,296.2,71.4,295.3,71.4z"/>
	</g>
	<g>
		<path class="st1" d="M287.5,0v60c0,0.2-0.7,0.2-0.7,0V0H287.5z"/>
		<g>
			<path class="st1" d="M283.6,74V63.9c0-2,1.6-3.5,3.6-3.5c2,0,3.5,1.6,3.5,3.5V74h0.6V63.9c0-2.3-1.9-4.2-4.1-4.2
				c-2.3,0-4.2,1.9-4.2,4.2V74H283.6z"/>
		</g>
	</g>
</g>
</svg>
