<?xml version="1.0" encoding="utf-8"?>
<!-- Generator: Adobe Illustrator 23.0.1, SVG Export Plug-In . SVG Version: 6.00 Build 0)  -->
<svg version="1.1" id="Livello_1" xmlns="http://www.w3.org/2000/svg" xmlns:xlink="http://www.w3.org/1999/xlink" x="0px" y="0px"
	 viewBox="0 0 800 460" style="enable-background:new 0 0 800 460;" xml:space="preserve">
<style type="text/css">
	.st0{fill:#6D7072;}
	.st1{fill:#A6A6A6;}
	.st2{fill:#232323;}
	.st3{fill:#979899;}
	.st4{fill:#DADADA;}
	.st5{fill:#B2B2B2;}
	.st6{fill:#878787;}
	.st7{fill:#F6F6F6;}
	.st8{fill:#FFFFFF;}
	.st9{fill:#E20613;}
	
		.st10{fill:none;stroke:#F6F6F6;stroke-width:4.9877;stroke-linecap:round;stroke-linejoin:round;stroke-miterlimit:10;stroke-dasharray:24.9387,12.4694;}
	.st11{fill:#A29FB0;}
	.st12{clip-path:url(#SVGID_2_);}
	.st13{fill:#1D1D1B;}
	.st14{fill:#EA5444;}
	.st15{fill:#FFC543;}
	.st16{fill:#A2CC3B;}
	.st17{fill:#58D80E;}
</style>
<g>
	<g>
		<path class="st0" d="M95.4,448.4c-10.6,0-19.2-8.6-19.2-19.1V20.5c0-10.6,8.6-19.1,19.2-19.1H704c10.6,0,19.2,8.6,19.2,19.1v408.7
			c0,10.6-8.6,19.1-19.2,19.1H95.4z"/>
		<path d="M721.9,429.2c0,9.8-8,17.8-17.9,17.8H95.4c-9.9,0-17.9-8-17.9-17.8V20.5c0-9.8,8-17.8,17.9-17.8H704
			c9.9,0,17.9,8,17.9,17.8V429.2z"/>
		<rect x="93.4" y="29.7" class="st1" width="611.9" height="382.3"/>
		<path class="st2" d="M76.2,422.6v6.6c0,10.6,8.6,19.1,19.2,19.1H704c10.6,0,19.2-8.6,19.2-19.1v-6.6H76.2z"/>
		<g>
			<g>
				<path class="st3" d="M372.7,426.4h1.2l2.1,5.5l2.1-5.5h1.2v6.6h-0.8v-5.5h0l-2.1,5.5h-0.7l-2.1-5.5h0v5.5h-0.8V426.4z"/>
				<path class="st3" d="M384.8,432.9c-0.1,0.1-0.3,0.1-0.6,0.1c-0.4,0-0.7-0.2-0.7-0.7c-0.4,0.5-1,0.7-1.7,0.7
					c-0.9,0-1.6-0.4-1.6-1.3c0-1.1,0.8-1.3,1.6-1.5c0.9-0.2,1.6-0.1,1.6-0.7c0-0.7-0.6-0.8-1.1-0.8c-0.7,0-1.2,0.2-1.2,0.9h-0.8
					c0-1.2,1-1.6,2-1.6c0.9,0,1.8,0.2,1.8,1.3v2.4c0,0.4,0,0.5,0.2,0.5c0.1,0,0.1,0,0.2,0V432.9z M383.5,430.5
					c-0.3,0.2-0.9,0.2-1.4,0.3c-0.5,0.1-1,0.3-1,0.9c0,0.5,0.4,0.7,0.9,0.7c1,0,1.5-0.6,1.5-1.1V430.5z"/>
				<path class="st3" d="M388.7,429.7c-0.1-0.6-0.5-0.9-1.2-0.9c-1.1,0-1.5,0.9-1.5,1.9c0,0.9,0.4,1.7,1.4,1.7
					c0.8,0,1.2-0.4,1.3-1.2h0.8c-0.2,1.2-0.9,1.8-2.1,1.8c-1.5,0-2.2-1-2.2-2.4c0-1.4,0.7-2.5,2.2-2.5c1.1,0,1.9,0.5,2.1,1.6H388.7z
					"/>
				<path class="st3" d="M390.6,426.4h2.4c0.6,0,1.3,0,1.7,0.2c0.4,0.3,0.8,0.7,0.8,1.4c0,0.7-0.4,1.2-1,1.5v0
					c0.8,0.2,1.3,0.8,1.3,1.6c0,1-0.7,1.9-2,1.9h-3.2V426.4z M391.4,429.2h1.7c1,0,1.4-0.4,1.4-1c0-0.9-0.6-1-1.4-1h-1.7V429.2z
					 M391.4,432.2h2.2c0.8,0,1.2-0.5,1.2-1.2c0-0.9-0.7-1.1-1.4-1.1h-2V432.2z"/>
				<path class="st3" d="M398.8,428.1c1.5,0,2.3,1.1,2.3,2.5c0,1.4-0.8,2.5-2.3,2.5c-1.5,0-2.3-1.1-2.3-2.5
					C396.5,429.2,397.3,428.1,398.8,428.1z M398.8,432.4c0.8,0,1.5-0.6,1.5-1.8c0-1.2-0.7-1.8-1.5-1.8c-0.8,0-1.5,0.6-1.5,1.8
					C397.3,431.7,398,432.4,398.8,432.4z"/>
				<path class="st3" d="M404.1,428.1c1.5,0,2.3,1.1,2.3,2.5c0,1.4-0.8,2.5-2.3,2.5c-1.5,0-2.3-1.1-2.3-2.5
					C401.8,429.2,402.6,428.1,404.1,428.1z M404.1,432.4c0.8,0,1.5-0.6,1.5-1.8c0-1.2-0.7-1.8-1.5-1.8s-1.5,0.6-1.5,1.8
					C402.6,431.7,403.3,432.4,404.1,432.4z"/>
				<path class="st3" d="M407.4,426.4h0.8v3.9l2.2-2.1h1l-1.9,1.7l2,3h-1l-1.6-2.5l-0.7,0.7v1.8h-0.8V426.4z"/>
				<path class="st3" d="M414.8,426.4h2.9c1.3,0,2,0.7,2,1.9c0,1.2-0.7,1.9-2,1.9h-2v2.7h-0.9V426.4z M415.6,429.5h1.7
					c1,0,1.4-0.4,1.4-1.2c0-0.8-0.5-1.2-1.4-1.2h-1.7V429.5z"/>
				<path class="st3" d="M420.6,428.2h0.7v1h0c0.4-0.8,0.9-1.1,1.7-1.1v0.8c-1.3,0-1.7,0.7-1.7,1.9v2.1h-0.8V428.2z"/>
				<path class="st3" d="M425.6,428.1c1.5,0,2.3,1.1,2.3,2.5c0,1.4-0.8,2.5-2.3,2.5c-1.5,0-2.3-1.1-2.3-2.5
					C423.3,429.2,424.1,428.1,425.6,428.1z M425.6,432.4c0.8,0,1.5-0.6,1.5-1.8c0-1.2-0.7-1.8-1.5-1.8c-0.8,0-1.5,0.6-1.5,1.8
					C424.1,431.7,424.7,432.4,425.6,432.4z"/>
			</g>
		</g>
		<path class="st4" d="M704,449.7H95.4c-11.3,0-20.5-9.2-20.5-20.5V20.5C74.8,9.2,84,0,95.4,0H704c11.3,0,20.5,9.2,20.5,20.5v408.7
			C724.5,440.5,715.3,449.7,704,449.7z M95.4,2.6c-9.9,0-17.9,8-17.9,17.8v408.7c0,9.8,8,17.8,17.9,17.8H704c9.9,0,17.9-8,17.9-17.8
			V20.5c0-9.8-8-17.8-17.9-17.8H95.4z"/>
		<rect y="436.7" class="st5" width="800" height="13.9"/>
		<polygon class="st4" points="752.1,460 46.4,460 0,450.6 800,450.6 		"/>
		<path class="st6" d="M345.7,447.7h108.9c6.1,0,11-4.9,11-10.9H334.7C334.7,442.8,339.6,447.7,345.7,447.7z"/>
	</g>
	<g>
		<path class="st4" d="M114.4,336.2h35.9c6.6,0,12-5.3,12-11.9V61.7c0-6.6-5.4-11.9-12-11.9h-35.9c-6.6,0-12,5.3-12,11.9v262.6
			C102.4,330.9,107.8,336.2,114.4,336.2z M126.4,73.6h12c6.6,0,12,5.3,12,11.9c0,6.6-5.4,11.9-12,11.9h-12c-6.6,0-12-5.3-12-11.9
			C114.4,79,119.7,73.6,126.4,73.6z M126.4,109.4h12c6.6,0,12,5.3,12,11.9s-5.4,11.9-12,11.9h-12c-6.6,0-12-5.3-12-11.9
			C114.4,114.8,119.7,109.4,126.4,109.4z M126.4,145.2h12c6.6,0,12,5.3,12,11.9s-5.4,11.9-12,11.9h-12c-6.6,0-12-5.3-12-11.9
			S119.7,145.2,126.4,145.2z M126.4,181.1h12c6.6,0,12,5.3,12,11.9s-5.4,11.9-12,11.9h-12c-6.6,0-12-5.3-12-11.9
			S119.7,181.1,126.4,181.1z M126.4,216.9h12c6.6,0,12,5.3,12,11.9s-5.4,11.9-12,11.9h-12c-6.6,0-12-5.3-12-11.9
			S119.7,216.9,126.4,216.9z M114.4,276.5c0-6.6,5.4-11.9,12-11.9h12c6.6,0,12,5.3,12,11.9v23.9c0,6.6-5.4,11.9-12,11.9h-12
			c-6.6,0-12-5.3-12-11.9C114.4,300.4,114.4,276.5,114.4,276.5z"/>
		<path class="st7" d="M126.4,97.5h12c6.6,0,12-5.3,12-11.9s-5.4-11.9-12-11.9h-12c-6.6,0-12,5.3-12,11.9
			C114.4,92.2,119.7,97.5,126.4,97.5z"/>
		<path class="st5" d="M126.4,133.3h12c6.6,0,12-5.3,12-11.9c0-6.6-5.4-11.9-12-11.9h-12c-6.6,0-12,5.3-12,11.9
			C114.4,128,119.7,133.3,126.4,133.3z"/>
		<g>
			<path class="st7" d="M126.4,169.1h12c6.6,0,12-5.3,12-11.9c0-6.6-5.4-11.9-12-11.9h-12c-6.6,0-12,5.3-12,11.9
				C114.4,163.8,119.7,169.1,126.4,169.1z"/>
			<path class="st7" d="M126.4,204.9h12c6.6,0,12-5.3,12-11.9s-5.4-11.9-12-11.9h-12c-6.6,0-12,5.3-12,11.9S119.7,204.9,126.4,204.9
				z"/>
			<path class="st7" d="M126.4,240.7h12c6.6,0,12-5.3,12-11.9s-5.4-11.9-12-11.9h-12c-6.6,0-12,5.3-12,11.9S119.7,240.7,126.4,240.7
				z"/>
		</g>
		<path class="st5" d="M126.4,312.3h12c6.6,0,12-5.3,12-11.9v-23.9c0-6.6-5.4-11.9-12-11.9h-12c-6.6,0-12,5.3-12,11.9v23.9
			C114.4,307,119.7,312.3,126.4,312.3z"/>
		<g>
			<path class="st4" d="M697.6,61.7c0-6.6-5.4-11.9-12-11.9H577.9c-6.6,0-12,5.3-12,11.9v71.6h131.7L697.6,61.7L697.6,61.7z
				 M679.6,121.4h-47.9h-12h-35.9c-3.3,0-6-2.7-6-6c0-3.3,2.7-6,6-6h35.9h12h47.9c3.3,0,6,2.7,6,6
				C685.6,118.7,682.9,121.4,679.6,121.4z M679.6,97.5h-12h-12h-71.8c-3.3,0-6-2.7-6-6c0-3.3,2.7-6,6-6h71.8h12h12c3.3,0,6,2.7,6,6
				C685.6,94.8,682.9,97.5,679.6,97.5z M679.6,73.6h-71.8h-12h-12c-3.3,0-6-2.7-6-6s2.7-6,6-6h12h12h71.8c3.3,0,6,2.7,6,6
				S682.9,73.6,679.6,73.6z"/>
			<path class="st4" d="M577.9,336.2h107.7c6.6,0,12-5.3,12-11.9V216.9H565.9v107.4C565.9,330.9,571.3,336.2,577.9,336.2z
				 M631.7,228.8h47.9c3.3,0,6,2.7,6,6s-2.7,6-6,6h-47.9c-3.3,0-6-2.7-6-6S628.4,228.8,631.7,228.8z M631.7,252.7h47.9
				c3.3,0,6,2.7,6,6c0,3.3-2.7,6-6,6h-47.9c-3.3,0-6-2.7-6-6C625.8,255.3,628.4,252.7,631.7,252.7z M631.7,276.5h47.9
				c3.3,0,6,2.7,6,6s-2.7,6-6,6h-47.9c-3.3,0-6-2.7-6-6C625.8,279.2,628.4,276.5,631.7,276.5z M631.7,300.4h47.9c3.3,0,6,2.7,6,6
				c0,3.3-2.7,6-6,6h-47.9c-3.3,0-6-2.7-6-6C625.8,303.1,628.4,300.4,631.7,300.4z M607.8,228.8L607.8,228.8c3.3,0,6,2.7,6,6
				s-2.7,6-6,6l0,0c-3.3,0-6-2.7-6-6S604.5,228.8,607.8,228.8z M607.8,252.7L607.8,252.7c3.3,0,6,2.7,6,6c0,3.3-2.7,6-6,6l0,0
				c-3.3,0-6-2.7-6-6C601.8,255.3,604.5,252.7,607.8,252.7z M607.8,276.5L607.8,276.5c3.3,0,6,2.7,6,6s-2.7,6-6,6l0,0
				c-3.3,0-6-2.7-6-6S604.5,276.5,607.8,276.5z M607.8,300.4L607.8,300.4c3.3,0,6,2.7,6,6c0,3.3-2.7,6-6,6l0,0c-3.3,0-6-2.7-6-6
				C601.8,303.1,604.5,300.4,607.8,300.4z M583.9,228.8L583.9,228.8c3.3,0,6,2.7,6,6s-2.7,6-6,6l0,0c-3.3,0-6-2.7-6-6
				S580.6,228.8,583.9,228.8z M583.9,252.7L583.9,252.7c3.3,0,6,2.7,6,6c0,3.3-2.7,6-6,6l0,0c-3.3,0-6-2.7-6-6
				C577.9,255.3,580.6,252.7,583.9,252.7z M583.9,276.5L583.9,276.5c3.3,0,6,2.7,6,6s-2.7,6-6,6l0,0c-3.3,0-6-2.7-6-6
				S580.6,276.5,583.9,276.5z M583.9,300.4L583.9,300.4c3.3,0,6,2.7,6,6c0,3.3-2.7,6-6,6l0,0c-3.3,0-6-2.7-6-6
				C577.9,303.1,580.6,300.4,583.9,300.4z"/>
		</g>
		<g>
			<path class="st4" d="M697.6,133.3H565.9v83.5h131.7V133.3z M595.8,204.9h-12c-3.3,0-6-2.7-6-6s2.7-6,6-6h12c3.3,0,6,2.7,6,6
				S599.1,204.9,595.8,204.9z M595.8,181.1h-12c-3.3,0-6-2.7-6-6s2.7-6,6-6h12c3.3,0,6,2.7,6,6S599.1,181.1,595.8,181.1z
				 M595.8,157.2h-12c-3.3,0-6-2.7-6-6s2.7-6,6-6h12c3.3,0,6,2.7,6,6S599.1,157.2,595.8,157.2z M679.6,204.9h-59.8c-3.3,0-6-2.7-6-6
				s2.7-6,6-6h59.8c3.3,0,6,2.7,6,6S682.9,204.9,679.6,204.9z M679.6,181.1h-59.8c-3.3,0-6-2.7-6-6s2.7-6,6-6h59.8c3.3,0,6,2.7,6,6
				S682.9,181.1,679.6,181.1z M679.6,157.2h-59.8c-3.3,0-6-2.7-6-6s2.7-6,6-6h59.8c3.3,0,6,2.7,6,6S682.9,157.2,679.6,157.2z"/>
			<path class="st5" d="M679.6,61.7h-71.8c3.3,0,6,2.7,6,6s-2.7,6-6,6h71.8c3.3,0,6-2.7,6-6S682.9,61.7,679.6,61.7z"/>
			<path class="st5" d="M589.9,67.7c0-3.3,2.7-6,6-6h-12c-3.3,0-6,2.7-6,6s2.7,6,6,6h12C592.5,73.6,589.9,71,589.9,67.7z"/>
			<path class="st5" d="M679.6,109.4h-47.9c3.3,0,6,2.7,6,6c0,3.3-2.7,6-6,6h47.9c3.3,0,6-2.7,6-6
				C685.6,112.1,682.9,109.4,679.6,109.4z"/>
			<path class="st5" d="M613.8,115.4c0-3.3,2.7-6,6-6h-35.9c-3.3,0-6,2.7-6,6c0,3.3,2.7,6,6,6h35.9
				C616.5,121.4,613.8,118.7,613.8,115.4z"/>
		</g>
		<path class="st5" d="M679.6,145.2h-59.8c-3.3,0-6,2.7-6,6s2.7,6,6,6h59.8c3.3,0,6-2.7,6-6S682.9,145.2,679.6,145.2z"/>
		<g>
			<path class="st5" d="M649.7,91.5c0-3.3,2.7-6,6-6h-71.8c-3.3,0-6,2.7-6,6s2.7,6,6,6h71.8C652.4,97.5,649.7,94.8,649.7,91.5z"/>
			<path class="st5" d="M679.6,85.6h-12c3.3,0,6,2.7,6,6s-2.7,6-6,6h12c3.3,0,6-2.7,6-6S682.9,85.6,679.6,85.6z"/>
		</g>
		<g>
			<path class="st7" d="M613.8,67.7c0-3.3-2.7-6-6-6h-12c-3.3,0-6,2.7-6,6s2.7,6,6,6h12C611.1,73.6,613.8,71,613.8,67.7z"/>
			<path class="st7" d="M637.7,115.4c0-3.3-2.7-6-6-6h-12c-3.3,0-6,2.7-6,6c0,3.3,2.7,6,6,6h12C635.1,121.4,637.7,118.7,637.7,115.4
				z"/>
			<path class="st7" d="M595.8,145.2h-12c-3.3,0-6,2.7-6,6s2.7,6,6,6h12c3.3,0,6-2.7,6-6S599.1,145.2,595.8,145.2z"/>
		</g>
		<path class="st5" d="M679.6,169.1h-59.8c-3.3,0-6,2.7-6,6s2.7,6,6,6h59.8c3.3,0,6-2.7,6-6S682.9,169.1,679.6,169.1z"/>
		<path class="st7" d="M595.8,169.1h-12c-3.3,0-6,2.7-6,6s2.7,6,6,6h12c3.3,0,6-2.7,6-6S599.1,169.1,595.8,169.1z"/>
		<path class="st5" d="M679.6,193h-59.8c-3.3,0-6,2.7-6,6s2.7,6,6,6h59.8c3.3,0,6-2.7,6-6S682.9,193,679.6,193z"/>
		<g>
			<path class="st7" d="M595.8,193h-12c-3.3,0-6,2.7-6,6s2.7,6,6,6h12c3.3,0,6-2.7,6-6S599.1,193,595.8,193z"/>
			<path class="st7" d="M583.9,264.6L583.9,264.6c3.3,0,6-2.7,6-6c0-3.3-2.7-6-6-6l0,0c-3.3,0-6,2.7-6,6
				C577.9,261.9,580.6,264.6,583.9,264.6z"/>
			<path class="st7" d="M583.9,240.7L583.9,240.7c3.3,0,6-2.7,6-6s-2.7-6-6-6l0,0c-3.3,0-6,2.7-6,6S580.6,240.7,583.9,240.7z"/>
			<path class="st7" d="M583.9,312.3L583.9,312.3c3.3,0,6-2.7,6-6c0-3.3-2.7-6-6-6l0,0c-3.3,0-6,2.7-6,6
				C577.9,309.7,580.6,312.3,583.9,312.3z"/>
			<path class="st7" d="M583.9,288.5L583.9,288.5c3.3,0,6-2.7,6-6s-2.7-6-6-6l0,0c-3.3,0-6,2.7-6,6S580.6,288.5,583.9,288.5z"/>
		</g>
		<g>
			<path class="st5" d="M607.8,264.6L607.8,264.6c3.3,0,6-2.7,6-6c0-3.3-2.7-6-6-6l0,0c-3.3,0-6,2.7-6,6
				C601.8,261.9,604.5,264.6,607.8,264.6z"/>
			<path class="st5" d="M607.8,240.7L607.8,240.7c3.3,0,6-2.7,6-6s-2.7-6-6-6l0,0c-3.3,0-6,2.7-6,6S604.5,240.7,607.8,240.7z"/>
			<path class="st5" d="M607.8,312.3L607.8,312.3c3.3,0,6-2.7,6-6c0-3.3-2.7-6-6-6l0,0c-3.3,0-6,2.7-6,6
				C601.8,309.7,604.5,312.3,607.8,312.3z"/>
			<path class="st5" d="M607.8,288.5L607.8,288.5c3.3,0,6-2.7,6-6s-2.7-6-6-6l0,0c-3.3,0-6,2.7-6,6S604.5,288.5,607.8,288.5z"/>
			<path class="st5" d="M631.7,264.6h47.9c3.3,0,6-2.7,6-6c0-3.3-2.7-6-6-6h-47.9c-3.3,0-6,2.7-6,6
				C625.8,261.9,628.4,264.6,631.7,264.6z"/>
			<path class="st5" d="M631.7,240.7h47.9c3.3,0,6-2.7,6-6s-2.7-6-6-6h-47.9c-3.3,0-6,2.7-6,6S628.4,240.7,631.7,240.7z"/>
			<path class="st5" d="M631.7,312.3h47.9c3.3,0,6-2.7,6-6c0-3.3-2.7-6-6-6h-47.9c-3.3,0-6,2.7-6,6
				C625.8,309.7,628.4,312.3,631.7,312.3z"/>
			<path class="st5" d="M631.7,288.5h47.9c3.3,0,6-2.7,6-6s-2.7-6-6-6h-47.9c-3.3,0-6,2.7-6,6C625.8,285.8,628.4,288.5,631.7,288.5z
				"/>
		</g>
		<path class="st7" d="M673.6,91.5c0-3.3-2.7-6-6-6h-12c-3.3,0-6,2.7-6,6s2.7,6,6,6h12C671,97.5,673.6,94.8,673.6,91.5z"/>
		<rect x="93.4" y="29.7" class="st7" width="611.9" height="11"/>
	</g>
	<g>
		<g>
			<rect x="202" y="69.5" class="st8" width="184.9" height="184.3"/>
			<g>
				<path class="st9" d="M293.7,196.4l0.3,0c55.7-6.2,82.1-14.5,92.9-19.7V170c-5.5-2.4-15.5-5.5-33.6-8.4
					c-28.7-4.6-68.4-7.1-111.9-7.1c-4.8,0-17.9,0.5-29.4,1l-3.2,0.1c-2.4,0.1-4.7,0.2-6.8,0.3v49.4c29.4-2.8,56.8-5.4,74.9-7.2
					C282.6,197.6,288.2,197,293.7,196.4z"/>
				<path class="st9" d="M214.9,140.1c47.3-4.6,72.8-11.4,82.5-15.4c-8.4-2.4-28.7-5.9-69.1-5.9c-8.5,0-17.3,0.2-26.2,0.5v21.9
					c5.8-0.5,10.8-0.9,12.4-1.1L214.9,140.1z"/>
				<path class="st9" d="M228.3,104.1c77.7,0,87.4,11.1,87.8,19.5c0.5,8.6-9.1,13.8-20.8,17.6c23,1.2,43.5,3.2,60.3,5.9
					c12.9,2.1,23.3,4.4,31.2,7.1V69.5H202v35.1C211,104.3,219.8,104.1,228.3,104.1z"/>
				<path class="st9" d="M366.3,199.2c-22.8,5.8-51,9.6-70.6,11.8c-0.1,0-11.7,1.2-17.4,1.8c-18.5,1.8-46.5,4.5-76.3,7.3v33.7h184.9
					v-61.2C381.2,195,374.3,197.1,366.3,199.2z"/>
			</g>
		</g>
		<rect x="190" y="57.6" class="st10" width="208.8" height="208.2"/>
	</g>
	<g>
		<path d="M284.4,355.8c-0.4,0-0.8-0.1-1.2-0.2c-1.2-0.5-1.9-1.6-1.9-2.8l-1.1-104.6c0-1.2,0.7-2.4,1.8-2.9c0.4-0.2,0.8-0.3,1.3-0.3
			c0.8,0,1.5,0.3,2.1,0.8L363,317c0.9,0.8,1.2,2.2,0.8,3.3c-0.4,1.2-1.5,2-2.8,2l-43.7,1.5l-30.8,31
			C286,355.5,285.2,355.8,284.4,355.8z"/>
		<path class="st8" d="M283.3,248.1l77.7,71.2l-44.9,1.6l-31.6,31.9L283.3,248.1 M283.3,241.9c-0.9,0-1.7,0.2-2.5,0.5
			c-2.2,1-3.7,3.2-3.7,5.7l1.1,104.6c0,2.5,1.5,4.7,3.9,5.7c0.8,0.3,1.5,0.5,2.3,0.5c1.6,0,3.2-0.6,4.4-1.8l29.9-30.1l42.5-1.5
			c2.5-0.1,4.7-1.7,5.6-4c0.9-2.4,0.2-5-1.6-6.7l-77.7-71.2C286.3,242.5,284.8,241.9,283.3,241.9L283.3,241.9z"/>
	</g>
	<rect x="569.9" y="358.7" class="st11" width="46.7" height="4.9"/>
	
		<rect x="593.1" y="317.2" transform="matrix(-1 -1.224647e-16 1.224647e-16 -1 1232.9595 639.2245)" class="st11" width="46.7" height="4.9"/>
	<g>
		<defs>
			<rect id="SVGID_1_" x="93.4" y="29.7" width="611.9" height="382.3"/>
		</defs>
		<clipPath id="SVGID_2_">
			<use xlink:href="#SVGID_1_"  style="overflow:visible;"/>
		</clipPath>
		<g class="st12">
			<g>
				<g>
					<path class="st13" d="M812.5,485.3c0,7.2-5.9,13.1-13.1,13.1H424.7c-7.2,0-13.1-5.9-13.1-13.1v-283c0-7.2,5.9-13.1,13.1-13.1
						h374.7c7.2,0,13.1,5.9,13.1,13.1V485.3z"/>
				</g>
				<path class="st7" d="M812.5,209.7v-7.4c0-7.2-5.9-13.1-13.1-13.1H424.7c-7.2,0-13.1,5.9-13.1,13.1v7.4H812.5z"/>
				<g>
					<g>
						<g>
							<path class="st14" d="M434.7,200.1c0,1.9-1.5,3.5-3.4,3.5c-1.9,0-3.4-1.6-3.4-3.5c0-1.9,1.5-3.5,3.4-3.5
								C433.1,196.7,434.7,198.2,434.7,200.1z"/>
						</g>
					</g>
					<g>
						<g>
							<ellipse class="st15" cx="443.6" cy="200.1" rx="3.4" ry="3.5"/>
						</g>
					</g>
					<g>
						<g>
							<ellipse class="st16" cx="456" cy="200.1" rx="3.4" ry="3.5"/>
						</g>
					</g>
				</g>
			</g>
			<g>
				<g>
					<rect x="720.6" y="228.1" class="st5" width="66.7" height="4.9"/>
					<rect x="720.6" y="352.5" class="st5" width="66.7" height="4.9"/>
					
						<rect x="422.4" y="311" transform="matrix(-1 -1.224647e-16 1.224647e-16 -1 911.5324 626.8865)" class="st5" width="66.7" height="4.9"/>
				</g>
				<g>
					<rect x="569.9" y="228.1" class="st17" width="46.7" height="4.9"/>
					<rect x="422.4" y="248.8" class="st17" width="52.8" height="4.9"/>
					<rect x="422.4" y="331.8" class="st17" width="52.8" height="4.9"/>
				</g>
				<g>
					<rect x="624.3" y="228.1" class="st8" width="66.7" height="4.9"/>
					<rect x="624.3" y="352.5" class="st8" width="66.7" height="4.9"/>
					
						<rect x="518.7" y="311" transform="matrix(-1 -1.224647e-16 1.224647e-16 -1 1104.0863 626.8865)" class="st8" width="66.7" height="4.9"/>
					<rect x="676.6" y="248.8" class="st8" width="110.7" height="4.9"/>
					<rect x="676.6" y="331.8" class="st8" width="110.7" height="4.9"/>
					<rect x="422.4" y="269.5" class="st8" width="52.8" height="4.9"/>
					
						<rect x="519.8" y="290.3" transform="matrix(-1 -1.224647e-16 1.224647e-16 -1 1092.3746 585.4056)" class="st8" width="52.8" height="4.9"/>
				</g>
				<g>
					<rect x="422.4" y="228.1" class="st6" width="140.8" height="4.9"/>
					<rect x="696.9" y="228.1" class="st6" width="15.8" height="4.9"/>
					<rect x="422.4" y="352.5" class="st6" width="140.8" height="4.9"/>
					<rect x="696.9" y="352.5" class="st6" width="15.8" height="4.9"/>
					
						<rect x="646.5" y="311" transform="matrix(-1 -1.224647e-16 1.224647e-16 -1 1433.7445 626.8865)" class="st6" width="140.8" height="4.9"/>
					
						<rect x="497" y="311" transform="matrix(-1 -1.224647e-16 1.224647e-16 -1 1009.7565 626.8865)" class="st6" width="15.8" height="4.9"/>
					<rect x="580.3" y="248.8" class="st6" width="22.7" height="4.9"/>
					<rect x="608.9" y="248.8" class="st6" width="59.8" height="4.9"/>
					<rect x="481.8" y="248.8" class="st6" width="90.8" height="4.9"/>
					<rect x="422.4" y="373.2" class="st6" width="52.8" height="4.9"/>
					<rect x="580.3" y="373.2" class="st6" width="22.7" height="4.9"/>
					<rect x="676.6" y="373.2" class="st6" width="110.7" height="4.9"/>
					<rect x="608.9" y="373.2" class="st6" width="59.8" height="4.9"/>
					<rect x="481.8" y="373.2" class="st6" width="90.8" height="4.9"/>
					<rect x="580.3" y="331.8" class="st6" width="22.7" height="4.9"/>
					<rect x="608.9" y="331.8" class="st6" width="59.8" height="4.9"/>
					<rect x="481.8" y="331.8" class="st6" width="90.8" height="4.9"/>
					<rect x="481.8" y="269.5" class="st6" width="90.8" height="4.9"/>
					
						<rect x="422.4" y="290.3" transform="matrix(-1 -1.224647e-16 1.224647e-16 -1 935.6017 585.4056)" class="st6" width="90.8" height="4.9"/>
				</g>
			</g>
			<g>
				<g>
					<rect x="720.6" y="394.7" class="st5" width="66.7" height="4.9"/>
					<rect x="720.6" y="519.1" class="st5" width="66.7" height="4.9"/>
					
						<rect x="422.4" y="477.7" transform="matrix(-1 -1.224647e-16 1.224647e-16 -1 911.5324 960.1636)" class="st5" width="66.7" height="4.9"/>
				</g>
				<g>
					<rect x="569.9" y="394.7" class="st17" width="46.7" height="4.9"/>
					<rect x="422.4" y="415.4" class="st17" width="52.8" height="4.9"/>
					<rect x="422.4" y="498.4" class="st17" width="52.8" height="4.9"/>
				</g>
				<g>
					<rect x="624.3" y="394.7" class="st8" width="66.7" height="4.9"/>
					<rect x="624.3" y="519.1" class="st8" width="66.7" height="4.9"/>
					
						<rect x="518.7" y="477.7" transform="matrix(-1 -1.224647e-16 1.224647e-16 -1 1104.0863 960.1636)" class="st8" width="66.7" height="4.9"/>
					<rect x="676.6" y="415.4" class="st8" width="110.7" height="4.9"/>
					<rect x="676.6" y="498.4" class="st8" width="110.7" height="4.9"/>
					<rect x="422.4" y="436.2" class="st8" width="52.8" height="4.9"/>
					
						<rect x="519.8" y="456.9" transform="matrix(-1 -1.224647e-16 1.224647e-16 -1 1092.3746 918.6827)" class="st8" width="52.8" height="4.9"/>
				</g>
				<g>
					<rect x="422.4" y="394.7" class="st6" width="140.8" height="4.9"/>
					<rect x="696.9" y="394.7" class="st6" width="15.8" height="4.9"/>
					<rect x="422.4" y="519.1" class="st6" width="140.8" height="4.9"/>
					<rect x="696.9" y="519.1" class="st6" width="15.8" height="4.9"/>
					
						<rect x="646.5" y="477.7" transform="matrix(-1 -1.224647e-16 1.224647e-16 -1 1433.7445 960.1636)" class="st6" width="140.8" height="4.9"/>
					
						<rect x="497" y="477.7" transform="matrix(-1 -1.224647e-16 1.224647e-16 -1 1009.7565 960.1636)" class="st6" width="15.8" height="4.9"/>
					<rect x="580.3" y="415.4" class="st6" width="22.7" height="4.9"/>
					<rect x="608.9" y="415.4" class="st6" width="59.8" height="4.9"/>
					<rect x="481.8" y="415.4" class="st6" width="90.8" height="4.9"/>
					<rect x="422.4" y="539.9" class="st6" width="52.8" height="4.9"/>
					<rect x="580.3" y="539.9" class="st6" width="22.7" height="4.9"/>
					<rect x="676.6" y="539.9" class="st6" width="110.7" height="4.9"/>
					<rect x="608.9" y="539.9" class="st6" width="59.8" height="4.9"/>
					<rect x="481.8" y="539.9" class="st6" width="90.8" height="4.9"/>
					<rect x="580.3" y="498.4" class="st6" width="22.7" height="4.9"/>
					<rect x="608.9" y="498.4" class="st6" width="59.8" height="4.9"/>
					<rect x="481.8" y="498.4" class="st6" width="90.8" height="4.9"/>
					<rect x="481.8" y="436.2" class="st6" width="90.8" height="4.9"/>
					
						<rect x="422.4" y="456.9" transform="matrix(-1 -1.224647e-16 1.224647e-16 -1 935.6017 918.6827)" class="st6" width="90.8" height="4.9"/>
				</g>
			</g>
		</g>
	</g>
</g>
</svg>
