<?xml version="1.0" standalone="no"?>
<!DOCTYPE svg PUBLIC "-//W3C//DTD SVG 20010904//EN"
 "http://www.w3.org/TR/2001/REC-SVG-20010904/DTD/svg10.dtd">
<svg version="1.0" xmlns="http://www.w3.org/2000/svg"
 width="512.000000pt" height="512.000000pt" viewBox="0 0 512.000000 512.000000"
 preserveAspectRatio="xMidYMid meet">
<metadata>
Created by potrace 1.11, written by Peter Selinger 2001-2013
</metadata>
<g transform="translate(0.000000,512.000000) scale(0.100000,-0.100000)"
fill="#000000" stroke="none">
<path d="M22 5104 c-20 -14 -22 -23 -22 -109 0 -89 1 -95 26 -114 46 -36 94
-1 94 71 l0 48 213 0 c195 0 215 2 230 18 22 24 21 65 -1 85 -16 15 -50 17
-268 17 -210 0 -253 -2 -272 -16z"/>
<path d="M781 5098 c-13 -13 -19 -30 -16 -46 9 -50 16 -51 358 -52 304 0 318
1 337 20 11 11 20 29 20 40 0 11 -9 29 -20 40 -19 19 -33 20 -340 20 -315 0
-319 0 -339 -22z"/>
<path d="M1677 5102 c-24 -26 -21 -68 5 -86 19 -14 68 -16 338 -16 173 0 320
4 327 8 6 4 16 19 22 34 8 22 6 31 -10 52 l-20 26 -323 0 c-300 0 -324 -1
-339 -18z"/>
<path d="M2584 5112 c-19 -13 -34 -50 -27 -69 15 -41 26 -42 356 -43 304 0
318 1 337 20 11 11 20 29 20 40 0 11 -9 29 -20 40 -19 19 -33 20 -337 20 -175
0 -323 -4 -329 -8z"/>
<path d="M3467 5102 c-24 -26 -21 -68 5 -86 34 -24 649 -24 672 0 9 8 16 18
17 22 0 4 2 15 4 24 2 9 -6 26 -16 37 -19 20 -28 21 -343 21 -300 0 -324 -1
-339 -18z"/>
<path d="M4374 5112 c-6 -4 -16 -17 -23 -29 -12 -24 -1 -59 23 -75 6 -4 156
-8 333 -8 321 0 322 0 337 22 22 32 20 64 -6 82 -19 14 -68 16 -338 16 -173 0
-320 -4 -326 -8z"/>
<path d="M5020 4860 c-19 -19 -20 -33 -20 -338 0 -342 1 -345 52 -357 19 -5
32 -1 47 14 20 20 21 30 21 341 0 307 -1 321 -20 340 -11 11 -29 20 -40 20
-11 0 -29 -9 -40 -20z"/>
<path d="M358 4769 c-9 -6 -15 -581 -9 -807 l1 -32 138 5 c292 12 986 6 1252
-10 131 -8 340 -24 385 -30 17 -2 53 -7 80 -10 137 -17 244 -35 365 -61 264
-59 431 -149 486 -261 25 -51 24 -154 -1 -208 -33 -70 -120 -145 -235 -203
-58 -29 -134 -63 -170 -77 l-65 -24 50 -2 c28 -1 64 -2 80 -4 17 -1 77 -6 135
-9 58 -4 121 -9 140 -10 19 -2 78 -6 130 -10 52 -4 111 -9 130 -11 37 -4 94
-10 200 -20 36 -4 76 -8 90 -10 14 -2 52 -7 85 -10 33 -3 71 -8 85 -10 36 -5
109 -15 155 -20 252 -32 655 -116 858 -179 l47 -15 -2 1017 -3 1017 -2198 0
c-1210 0 -2204 -3 -2209 -6z"/>
<path d="M40 4683 c-38 -14 -40 -28 -40 -358 0 -299 1 -323 18 -338 26 -24 68
-21 86 5 14 19 16 69 16 338 0 238 -3 320 -12 332 -15 19 -47 28 -68 21z"/>
<path d="M5022 3964 c-22 -15 -22 -16 -22 -340 0 -308 1 -325 19 -343 23 -23
69 -20 89 6 9 13 12 97 12 338 0 299 -1 323 -18 338 -23 21 -51 22 -80 1z"/>
<path d="M20 3770 c-19 -19 -20 -33 -20 -338 0 -351 2 -362 60 -362 58 0 60
11 60 362 0 305 -1 319 -20 338 -11 11 -29 20 -40 20 -11 0 -29 -9 -40 -20z"/>
<path d="M428 3582 l-78 -3 0 -264 0 -265 33 5 c17 2 68 7 112 10 44 3 98 8
120 10 22 3 67 7 100 10 122 11 171 16 195 20 14 2 48 7 75 10 84 9 138 15
175 20 188 26 329 46 345 49 11 2 43 7 70 10 334 45 1069 227 1038 257 -9 8
-229 54 -308 63 -27 4 -61 8 -75 11 -14 2 -50 7 -80 10 -30 3 -71 7 -90 9 -37
5 -123 12 -255 21 -44 3 -109 8 -145 11 -71 6 -1106 11 -1232 6z"/>
<path d="M5050 3082 c-8 -2 -23 -11 -32 -20 -16 -14 -18 -42 -18 -326 0 -171
3 -321 6 -332 11 -41 82 -48 106 -11 4 7 8 156 8 333 0 293 -2 322 -17 336
-26 22 -36 26 -53 20z"/>
<path d="M20 2870 c-19 -19 -20 -33 -20 -340 0 -307 1 -321 20 -340 11 -11 29
-20 40 -20 11 0 29 9 40 20 19 19 20 33 20 340 0 307 -1 321 -20 340 -11 11
-29 20 -40 20 -11 0 -29 -9 -40 -20z"/>
<path d="M1277 2734 c-1 -1 -105 -5 -232 -8 -405 -12 -687 -24 -693 -31 -4 -4
-6 -1117 -3 -1172 1 -6 14 -10 34 -8 30 3 100 10 192 20 22 2 72 7 110 10 170
16 284 26 318 30 15 2 62 6 105 10 42 3 91 8 107 10 27 3 77 9 190 20 22 2 76
7 120 10 44 4 91 8 105 10 13 3 58 7 99 11 41 3 83 7 92 9 10 2 58 7 106 10
48 4 99 8 113 10 14 3 54 7 90 10 36 3 88 8 115 10 28 3 70 7 95 10 25 3 68 8
95 10 78 7 161 16 265 30 19 2 60 7 90 10 30 4 100 13 155 20 55 8 123 17 150
20 103 13 536 86 685 116 325 64 659 154 851 229 145 55 142 53 142 139 0 39
-4 76 -10 82 -15 15 -135 56 -273 93 -260 70 -641 134 -1080 181 -25 3 -63 7
-85 10 -44 5 -132 12 -240 20 -38 3 -92 7 -120 10 -76 6 -200 15 -295 20 -207
11 -321 16 -405 20 -146 6 -984 22 -988 19z"/>
<path d="M5021 2169 c-20 -19 -21 -29 -21 -337 0 -350 2 -362 59 -362 60 0 61
4 61 358 0 278 -2 323 -16 336 -8 9 -18 16 -22 17 -4 0 -15 2 -24 4 -9 2 -26
-6 -37 -16z"/>
<path d="M17 1972 c-15 -17 -17 -55 -17 -340 0 -320 0 -321 22 -342 16 -15 30
-19 48 -15 49 12 50 17 50 355 0 269 -2 319 -16 338 -19 27 -64 29 -87 4z"/>
<path d="M4735 1804 c-88 -39 -475 -155 -595 -178 -14 -3 -34 -7 -45 -10 -34
-8 -169 -37 -195 -42 -246 -47 -395 -74 -435 -79 -27 -3 -57 -7 -65 -10 -8 -2
-35 -7 -60 -10 -25 -3 -56 -8 -70 -10 -99 -16 -163 -25 -215 -30 -33 -4 -67
-8 -75 -10 -8 -2 -42 -7 -75 -11 -33 -3 -73 -8 -90 -10 -16 -2 -68 -9 -115
-14 -47 -6 -101 -12 -120 -15 -19 -2 -62 -7 -95 -10 -63 -6 -119 -12 -195 -20
-25 -3 -92 -9 -150 -15 -58 -6 -127 -13 -155 -16 -122 -12 -144 -14 -205 -19
-36 -3 -83 -8 -105 -11 -22 -2 -69 -7 -105 -10 -82 -6 -143 -12 -200 -18 -25
-3 -70 -8 -100 -10 -30 -3 -77 -8 -105 -10 -27 -3 -79 -8 -115 -11 -61 -5 -83
-7 -205 -20 -75 -7 -142 -14 -220 -20 -38 -3 -86 -8 -105 -10 -19 -3 -64 -7
-100 -10 -35 -4 -66 -8 -69 -11 -3 -3 -5 -734 -2 -792 1 -10 447 -12 2213 -10
l2211 3 0 728 c0 400 -2 729 -4 731 -2 2 -17 -3 -34 -10z"/>
<path d="M5040 1283 c-38 -14 -40 -28 -40 -353 0 -349 2 -360 60 -360 58 0 60
11 60 362 0 313 0 317 -22 338 -22 20 -31 23 -58 13z"/>
<path d="M17 1072 c-15 -17 -17 -55 -17 -338 0 -175 4 -324 8 -330 4 -6 17
-16 29 -23 24 -12 59 -1 75 23 4 6 8 155 8 332 0 298 -1 322 -18 337 -24 22
-65 21 -85 -1z"/>
<path d="M5020 370 c-18 -18 -20 -33 -20 -135 l0 -115 -277 0 c-153 0 -283 -4
-289 -8 -24 -16 -35 -51 -23 -75 7 -12 17 -25 23 -29 6 -4 156 -8 333 -8 321
0 322 0 337 22 13 18 16 53 16 175 0 140 -2 155 -20 173 -11 11 -29 20 -40 20
-11 0 -29 -9 -40 -20z"/>
<path d="M32 187 c-28 -13 -36 -43 -30 -109 4 -34 12 -56 24 -65 14 -10 81
-13 299 -13 260 0 283 1 298 18 21 23 22 51 1 80 -15 22 -18 22 -260 22 -230
0 -244 1 -244 18 0 37 -52 65 -88 49z"/>
<path d="M840 100 c-11 -11 -20 -29 -20 -40 0 -11 9 -29 20 -40 19 -19 33 -20
338 -20 352 0 355 1 355 60 0 59 -3 60 -355 60 -305 0 -319 -1 -338 -20z"/>
<path d="M1737 102 c-24 -26 -21 -68 5 -86 19 -14 69 -16 339 -16 l318 0 20
26 c16 21 18 30 10 52 -6 15 -16 30 -22 34 -7 4 -156 8 -333 8 -298 0 -322 -1
-337 -18z"/>
<path d="M2633 100 c-25 -23 -23 -67 4 -88 13 -9 96 -12 335 -12 305 0 319 1
338 20 11 11 20 29 20 40 0 11 -9 29 -20 40 -19 19 -33 20 -338 20 -303 0
-319 -1 -339 -20z"/>
<path d="M3527 102 c-24 -26 -21 -68 5 -86 19 -14 68 -16 338 -16 173 0 320 4
327 8 33 21 32 82 -1 104 -6 4 -155 8 -332 8 -298 0 -322 -1 -337 -18z"/>
</g>
</svg>
